<svg width="722" height="514" viewBox="0 0 722 514" fill="none" xmlns="http://www.w3.org/2000/svg">
<rect width="722" height="514" fill="white"/>
<g clip-path="url(#clip0_24_1093)">
<path d="M255 142H279V146H255V142ZM263.48 116.14L269.14 110.48L297.42 138.76L291.76 144.42L263.48 116.14ZM277.64 102L288.96 113.32L283.3 118.98L271.98 107.66L277.64 102ZM260.66 118.96L271.98 130.28L266.32 135.94L255 124.62L260.66 118.96Z" fill="#673AB7"/>
</g>
<g clip-path="url(#clip1_24_1093)">
<path d="M39 337.015V329.015H19V365.015H59V337.015H39ZM27 361.015H23V357.015H27V361.015ZM27 353.015H23V349.015H27V353.015ZM27 345.015H23V341.015H27V345.015ZM27 337.015H23V333.015H27V337.015ZM35 361.015H31V357.015H35V361.015ZM35 353.015H31V349.015H35V353.015ZM35 345.015H31V341.015H35V345.015ZM35 337.015H31V333.015H35V337.015ZM55 361.015H39V357.015H43V353.015H39V349.015H43V345.015H39V341.015H55V361.015ZM51 345.015H47V349.015H51V345.015ZM51 353.015H47V357.015H51V353.015Z" fill="#673AB7"/>
</g>
<g clip-path="url(#clip2_24_1093)">
<path d="M112.72 94.0146L113.92 100.015H86.08L87.28 94.0146H112.72ZM116 84.0146H84V88.0146H116V84.0146ZM116 90.0146H84L82 100.015V104.015H84V116.015H104V104.015H112V116.015H116V104.015H118V100.015L116 90.0146ZM88 112.015V104.015H100V112.015H88Z" fill="#673AB7"/>
</g>
<path d="M100.864 127.779H99.0928V222.562H100.864V127.779Z" fill="#3F3D56"/>
<path d="M100.864 250.775H99.0928V334.174H100.864V250.775Z" fill="#3F3D56"/>
<path d="M233.738 347.461H96.4365V349.233H233.738V347.461Z" fill="#3F3D56"/>
<path d="M39.7433 371.379H37.9717V446.673H39.7433V371.379Z" fill="#3F3D56"/>
<path d="M262.083 459.96H53.9165V461.732H262.083V459.96Z" fill="#3F3D56"/>
<path d="M435.703 67.5435H433.932V157.011H435.703V67.5435Z" fill="#3F3D56"/>
<path d="M420.645 171.184H290.399V172.956H420.645V171.184Z" fill="#3F3D56"/>
<path d="M277.143 185.357H275.371V304.942H277.143V185.357Z" fill="#3F3D56"/>
<path d="M99.9788 251.793C97.0005 251.793 94.089 250.91 91.6126 249.255C89.1361 247.601 87.206 245.249 86.0662 242.497C84.9265 239.745 84.6282 236.717 85.2093 233.796C85.7903 230.875 87.2246 228.192 89.3306 226.086C91.4366 223.98 94.1198 222.546 97.041 221.965C99.9621 221.384 102.99 221.682 105.742 222.822C108.493 223.961 110.845 225.892 112.5 228.368C114.155 230.844 115.038 233.756 115.038 236.734C115.033 240.727 113.445 244.554 110.622 247.378C107.799 250.201 103.971 251.789 99.9788 251.793ZM99.9788 223.447C97.3509 223.447 94.7819 224.226 92.5968 225.686C90.4117 227.146 88.7087 229.221 87.703 231.649C86.6973 234.077 86.4342 236.749 86.9469 239.326C87.4596 241.904 88.725 244.271 90.5833 246.13C92.4416 247.988 94.8091 249.253 97.3866 249.766C99.9641 250.279 102.636 250.016 105.064 249.01C107.492 248.004 109.567 246.301 111.027 244.116C112.487 241.931 113.266 239.362 113.266 236.734C113.262 233.211 111.861 229.834 109.37 227.343C106.879 224.852 103.502 223.451 99.9788 223.447Z" fill="#3F3D56"/>
<path d="M39.744 475.905C36.7656 475.905 33.8541 475.022 31.3777 473.367C28.9013 471.712 26.9711 469.36 25.8314 466.609C24.6916 463.857 24.3934 460.829 24.9744 457.908C25.5555 454.987 26.9897 452.304 29.0957 450.198C31.2018 448.092 33.885 446.658 36.8061 446.076C39.7272 445.495 42.7551 445.794 45.5068 446.933C48.2584 448.073 50.6103 450.003 52.265 452.48C53.9197 454.956 54.8029 457.868 54.8029 460.846C54.7984 464.838 53.2104 468.666 50.3873 471.489C47.5642 474.312 43.7365 475.9 39.744 475.905ZM39.744 447.559C37.116 447.559 34.547 448.338 32.362 449.798C30.1769 451.258 28.4738 453.333 27.4681 455.761C26.4624 458.189 26.1993 460.861 26.712 463.438C27.2247 466.016 28.4902 468.383 30.3484 470.242C32.2067 472.1 34.5743 473.365 37.1517 473.878C39.7292 474.391 42.4008 474.128 44.8288 473.122C47.2567 472.116 49.3319 470.413 50.7919 468.228C52.2519 466.043 53.0312 463.474 53.0312 460.846C53.0273 457.323 51.6261 453.946 49.1351 451.455C46.6442 448.964 43.2668 447.563 39.744 447.559Z" fill="#3F3D56"/>
<path d="M100.864 362.52C108.692 362.52 115.038 356.175 115.038 348.347C115.038 340.52 108.692 334.174 100.864 334.174C93.0369 334.174 86.6914 340.52 86.6914 348.347C86.6914 356.175 93.0369 362.52 100.864 362.52Z" fill="#673AB7"/>
<path d="M613.753 235.849H466.708V237.62H613.753V235.849Z" fill="#3F3D56"/>
<path d="M453.42 250.775H451.648V334.174H453.42V250.775Z" fill="#3F3D56"/>
<path d="M437.476 347.461H319.662V349.233H437.476V347.461Z" fill="#3F3D56"/>
<path d="M649.186 355.434H526.943V357.206H649.186V355.434Z" fill="#3F3D56"/>
<path d="M514.542 371.379H512.77V446.673H514.542V371.379Z" fill="#3F3D56"/>
<path d="M498.597 459.96H290.43V461.732H498.597V459.96Z" fill="#3F3D56"/>
<path d="M277.143 391.752H275.371V446.673H277.143V391.752Z" fill="#3F3D56"/>
<path d="M452.533 250.908C460.361 250.908 466.706 244.562 466.706 236.735C466.706 228.907 460.361 222.562 452.533 222.562C444.706 222.562 438.36 228.907 438.36 236.735C438.36 244.562 444.706 250.908 452.533 250.908Z" fill="#673AB7"/>
<path d="M434.818 186.243C431.839 186.243 428.928 185.36 426.451 183.705C423.975 182.051 422.045 179.699 420.905 176.947C419.765 174.196 419.467 171.168 420.048 168.247C420.629 165.325 422.063 162.642 424.169 160.536C426.275 158.43 428.959 156.996 431.88 156.415C434.801 155.834 437.829 156.132 440.58 157.272C443.332 158.412 445.684 160.342 447.339 162.818C448.993 165.295 449.877 168.206 449.877 171.184C449.872 175.177 448.284 179.005 445.461 181.828C442.638 184.651 438.81 186.239 434.818 186.243ZM434.818 157.897C432.19 157.897 429.621 158.676 427.436 160.136C425.251 161.596 423.548 163.672 422.542 166.1C421.536 168.528 421.273 171.199 421.786 173.777C422.298 176.354 423.564 178.722 425.422 180.58C427.28 182.438 429.648 183.704 432.225 184.216C434.803 184.729 437.475 184.466 439.903 183.46C442.33 182.455 444.406 180.751 445.866 178.566C447.326 176.381 448.105 173.812 448.105 171.184C448.101 167.662 446.7 164.284 444.209 161.793C441.718 159.302 438.34 157.901 434.818 157.897Z" fill="#3F3D56"/>
<path d="M276.257 186.243C273.279 186.243 270.367 185.36 267.891 183.705C265.414 182.051 263.484 179.699 262.345 176.947C261.205 174.196 260.907 171.168 261.488 168.247C262.069 165.325 263.503 162.642 265.609 160.536C267.715 158.43 270.398 156.996 273.319 156.415C276.24 155.834 279.268 156.132 282.02 157.272C284.772 158.412 287.123 160.342 288.778 162.818C290.433 165.295 291.316 168.206 291.316 171.184C291.312 175.177 289.724 179.005 286.9 181.828C284.077 184.651 280.25 186.239 276.257 186.243ZM276.257 157.897C273.629 157.897 271.06 158.676 268.875 160.136C266.69 161.596 264.987 163.672 263.981 166.1C262.976 168.528 262.712 171.199 263.225 173.777C263.738 176.354 265.003 178.722 266.862 180.58C268.72 182.438 271.087 183.704 273.665 184.216C276.242 184.729 278.914 184.466 281.342 183.46C283.77 182.455 285.845 180.751 287.305 178.566C288.765 176.381 289.544 173.812 289.544 171.184C289.54 167.662 288.139 164.284 285.648 161.793C283.157 159.302 279.78 157.901 276.257 157.897Z" fill="#3F3D56"/>
<path d="M512.771 372.265C509.792 372.265 506.881 371.382 504.405 369.727C501.928 368.072 499.998 365.72 498.858 362.969C497.718 360.217 497.42 357.189 498.001 354.268C498.582 351.347 500.017 348.664 502.123 346.558C504.229 344.452 506.912 343.017 509.833 342.436C512.754 341.855 515.782 342.154 518.534 343.293C521.285 344.433 523.637 346.363 525.292 348.84C526.947 351.316 527.83 354.227 527.83 357.206C527.825 361.198 526.237 365.026 523.414 367.849C520.591 370.672 516.763 372.26 512.771 372.265ZM512.771 343.919C510.143 343.919 507.574 344.698 505.389 346.158C503.204 347.618 501.501 349.693 500.495 352.121C499.489 354.549 499.226 357.221 499.739 359.798C500.252 362.376 501.517 364.743 503.375 366.601C505.234 368.46 507.601 369.725 510.179 370.238C512.756 370.75 515.428 370.487 517.856 369.482C520.284 368.476 522.359 366.773 523.819 364.588C525.279 362.403 526.058 359.834 526.058 357.206C526.054 353.683 524.653 350.306 522.162 347.815C519.671 345.324 516.294 343.923 512.771 343.919Z" fill="#3F3D56"/>
<path d="M512.769 475.019C520.597 475.019 526.942 468.673 526.942 460.846C526.942 453.018 520.597 446.673 512.769 446.673C504.942 446.673 498.596 453.018 498.596 460.846C498.596 468.673 504.942 475.019 512.769 475.019Z" fill="#673AB7"/>
<path d="M276.257 475.905C273.279 475.905 270.367 475.022 267.891 473.367C265.414 471.712 263.484 469.36 262.345 466.609C261.205 463.857 260.907 460.829 261.488 457.908C262.069 454.987 263.503 452.304 265.609 450.198C267.715 448.092 270.398 446.658 273.319 446.076C276.24 445.495 279.268 445.794 282.02 446.933C284.772 448.073 287.123 450.003 288.778 452.48C290.433 454.956 291.316 457.868 291.316 460.846C291.312 464.838 289.724 468.666 286.9 471.489C284.077 474.312 280.25 475.9 276.257 475.905ZM276.257 447.559C273.629 447.559 271.06 448.338 268.875 449.798C266.69 451.258 264.987 453.333 263.981 455.761C262.976 458.189 262.712 460.861 263.225 463.438C263.738 466.016 265.003 468.383 266.862 470.242C268.72 472.1 271.087 473.365 273.665 473.878C276.242 474.391 278.914 474.128 281.342 473.122C283.77 472.116 285.845 470.413 287.305 468.228C288.765 466.043 289.544 463.474 289.544 460.846C289.54 457.323 288.139 453.946 285.648 451.455C283.157 448.964 279.78 447.563 276.257 447.559Z" fill="#3F3D56"/>
<path d="M451.648 363.406C448.67 363.406 445.758 362.523 443.282 360.868C440.806 359.214 438.875 356.862 437.736 354.11C436.596 351.359 436.298 348.331 436.879 345.41C437.46 342.488 438.894 339.805 441 337.699C443.106 335.593 445.789 334.159 448.71 333.578C451.632 332.997 454.659 333.295 457.411 334.435C460.163 335.575 462.515 337.505 464.169 339.981C465.824 342.458 466.707 345.369 466.707 348.347C466.703 352.34 465.115 356.168 462.292 358.991C459.468 361.814 455.641 363.402 451.648 363.406ZM451.648 335.06C449.02 335.06 446.451 335.84 444.266 337.3C442.081 338.76 440.378 340.835 439.372 343.263C438.367 345.691 438.104 348.362 438.616 350.94C439.129 353.517 440.395 355.885 442.253 357.743C444.111 359.601 446.479 360.867 449.056 361.379C451.634 361.892 454.305 361.629 456.733 360.623C459.161 359.618 461.236 357.915 462.696 355.729C464.156 353.544 464.935 350.975 464.935 348.347C464.932 344.825 463.53 341.447 461.039 338.956C458.548 336.465 455.171 335.064 451.648 335.06Z" fill="#3F3D56"/>
<path d="M151.226 340V325.455H152.988V331.932H160.743V325.455H162.505V340H160.743V333.494H152.988V340H151.226ZM177.735 330H175.974C175.87 329.493 175.688 329.048 175.427 328.665C175.172 328.281 174.859 327.959 174.49 327.699C174.125 327.434 173.72 327.235 173.275 327.102C172.83 326.97 172.366 326.903 171.883 326.903C171.002 326.903 170.205 327.126 169.49 327.571C168.779 328.016 168.214 328.672 167.792 329.538C167.376 330.405 167.167 331.468 167.167 332.727C167.167 333.987 167.376 335.05 167.792 335.916C168.214 336.783 168.779 337.438 169.49 337.884C170.205 338.329 171.002 338.551 171.883 338.551C172.366 338.551 172.83 338.485 173.275 338.352C173.72 338.22 174.125 338.023 174.49 337.763C174.859 337.498 175.172 337.173 175.427 336.79C175.688 336.402 175.87 335.956 175.974 335.455H177.735C177.603 336.198 177.361 336.863 177.011 337.45C176.661 338.037 176.225 338.537 175.704 338.949C175.183 339.356 174.599 339.666 173.95 339.879C173.306 340.092 172.617 340.199 171.883 340.199C170.643 340.199 169.539 339.896 168.574 339.29C167.608 338.684 166.848 337.822 166.294 336.705C165.74 335.587 165.463 334.261 165.463 332.727C165.463 331.193 165.74 329.867 166.294 328.75C166.848 327.633 167.608 326.771 168.574 326.165C169.539 325.559 170.643 325.256 171.883 325.256C172.617 325.256 173.306 325.362 173.95 325.575C174.599 325.788 175.183 326.101 175.704 326.513C176.225 326.92 176.661 327.417 177.011 328.004C177.361 328.587 177.603 329.252 177.735 330ZM181.317 325.455L185.067 331.506H185.18L188.93 325.455H191.004L186.43 332.727L191.004 340H188.93L185.18 334.062H185.067L181.317 340H179.243L183.93 332.727L179.243 325.455H181.317Z" fill="black"/>
<path d="M91 198.788L76.4545 198.788L76.4545 197.027L82.9318 197.027L82.9318 189.271L76.4545 189.271L76.4545 187.51L91 187.51L91 189.271L84.4943 189.271L84.4943 197.027L91 197.027L91 198.788ZM81 172.279L81 174.041C80.4934 174.145 80.0483 174.327 79.6648 174.587C79.2812 174.843 78.9593 175.156 78.6989 175.525C78.4337 175.89 78.2348 176.294 78.1023 176.739C77.9697 177.185 77.9034 177.649 77.9034 178.131C77.9034 179.012 78.1259 179.81 78.571 180.525C79.0161 181.235 79.6719 181.801 80.5384 182.222C81.4048 182.639 82.4678 182.847 83.7273 182.847C84.9867 182.847 86.0497 182.639 86.9162 182.222C87.7827 181.801 88.4384 181.235 88.8835 180.525C89.3286 179.81 89.5511 179.012 89.5511 178.131C89.5511 177.649 89.4848 177.185 89.3523 176.739C89.2197 176.294 89.0232 175.89 88.7628 175.525C88.4976 175.156 88.1733 174.843 87.7898 174.587C87.4015 174.327 86.9564 174.145 86.4545 174.041L86.4545 172.279C87.1979 172.412 87.8632 172.653 88.4503 173.004C89.0374 173.354 89.5369 173.79 89.9489 174.31C90.3561 174.831 90.6662 175.416 90.8793 176.065C91.0923 176.709 91.1989 177.398 91.1989 178.131C91.1989 179.372 90.8958 180.475 90.2898 181.441C89.6837 182.407 88.822 183.167 87.7045 183.721C86.5871 184.275 85.2614 184.552 83.7273 184.552C82.1932 184.552 80.8674 184.275 79.75 183.721C78.6326 183.167 77.7708 182.407 77.1648 181.441C76.5587 180.475 76.2557 179.372 76.2557 178.131C76.2557 177.398 76.3622 176.709 76.5753 176.065C76.7884 175.416 77.1009 174.831 77.5128 174.31C77.92 173.79 78.4171 173.354 79.0043 173.004C79.5866 172.653 80.2519 172.412 81 172.279ZM76.4545 168.698L82.5057 164.948L82.5057 164.834L76.4545 161.084L76.4545 159.01L83.7273 163.584L91 159.01L91 161.084L85.0625 164.834L85.0625 164.948L91 168.698L91 170.772L83.7273 166.084L76.4545 170.772L76.4545 168.698Z" fill="black"/>
<path d="M366.226 451V436.455H367.988V442.932H375.743V436.455H377.505V451H375.743V444.494H367.988V451H366.226ZM392.735 441H390.974C390.87 440.493 390.688 440.048 390.427 439.665C390.172 439.281 389.859 438.959 389.49 438.699C389.125 438.434 388.72 438.235 388.275 438.102C387.83 437.97 387.366 437.903 386.883 437.903C386.002 437.903 385.205 438.126 384.49 438.571C383.779 439.016 383.214 439.672 382.792 440.538C382.376 441.405 382.167 442.468 382.167 443.727C382.167 444.987 382.376 446.05 382.792 446.916C383.214 447.783 383.779 448.438 384.49 448.884C385.205 449.329 386.002 449.551 386.883 449.551C387.366 449.551 387.83 449.485 388.275 449.352C388.72 449.22 389.125 449.023 389.49 448.763C389.859 448.498 390.172 448.173 390.427 447.79C390.688 447.402 390.87 446.956 390.974 446.455H392.735C392.603 447.198 392.361 447.863 392.011 448.45C391.661 449.037 391.225 449.537 390.704 449.949C390.183 450.356 389.599 450.666 388.95 450.879C388.306 451.092 387.617 451.199 386.883 451.199C385.643 451.199 384.539 450.896 383.574 450.29C382.608 449.684 381.848 448.822 381.294 447.705C380.74 446.587 380.463 445.261 380.463 443.727C380.463 442.193 380.74 440.867 381.294 439.75C381.848 438.633 382.608 437.771 383.574 437.165C384.539 436.559 385.643 436.256 386.883 436.256C387.617 436.256 388.306 436.362 388.95 436.575C389.599 436.788 390.183 437.101 390.704 437.513C391.225 437.92 391.661 438.417 392.011 439.004C392.361 439.587 392.603 440.252 392.735 441ZM396.317 436.455L400.067 442.506H400.18L403.93 436.455H406.004L401.43 443.727L406.004 451H403.93L400.18 445.062H400.067L396.317 451H394.243L398.93 443.727L394.243 436.455H396.317Z" fill="black"/>
<path d="M360.226 340V325.455H361.988V331.932H369.743V325.455H371.505V340H369.743V333.494H361.988V340H360.226ZM386.735 330H384.974C384.87 329.493 384.688 329.048 384.427 328.665C384.172 328.281 383.859 327.959 383.49 327.699C383.125 327.434 382.72 327.235 382.275 327.102C381.83 326.97 381.366 326.903 380.883 326.903C380.002 326.903 379.205 327.126 378.49 327.571C377.779 328.016 377.214 328.672 376.792 329.538C376.376 330.405 376.167 331.468 376.167 332.727C376.167 333.987 376.376 335.05 376.792 335.916C377.214 336.783 377.779 337.438 378.49 337.884C379.205 338.329 380.002 338.551 380.883 338.551C381.366 338.551 381.83 338.485 382.275 338.352C382.72 338.22 383.125 338.023 383.49 337.763C383.859 337.498 384.172 337.173 384.427 336.79C384.688 336.402 384.87 335.956 384.974 335.455H386.735C386.603 336.198 386.361 336.863 386.011 337.45C385.661 338.037 385.225 338.537 384.704 338.949C384.183 339.356 383.599 339.666 382.95 339.879C382.306 340.092 381.617 340.199 380.883 340.199C379.643 340.199 378.539 339.896 377.574 339.29C376.608 338.684 375.848 337.822 375.294 336.705C374.74 335.587 374.463 334.261 374.463 332.727C374.463 331.193 374.74 329.867 375.294 328.75C375.848 327.633 376.608 326.771 377.574 326.165C378.539 325.559 379.643 325.256 380.883 325.256C381.617 325.256 382.306 325.362 382.95 325.575C383.599 325.788 384.183 326.101 384.704 326.513C385.225 326.92 385.661 327.417 386.011 328.004C386.361 328.587 386.603 329.252 386.735 330ZM390.317 325.455L394.067 331.506H394.18L397.93 325.455H400.004L395.43 332.727L400.004 340H397.93L394.18 334.062H394.067L390.317 340H388.243L392.93 332.727L388.243 325.455H390.317Z" fill="black"/>
<path d="M336.226 163V148.455H337.988V154.932H345.743V148.455H347.505V163H345.743V156.494H337.988V163H336.226ZM362.735 153H360.974C360.87 152.493 360.688 152.048 360.427 151.665C360.172 151.281 359.859 150.959 359.49 150.699C359.125 150.434 358.72 150.235 358.275 150.102C357.83 149.97 357.366 149.903 356.883 149.903C356.002 149.903 355.205 150.126 354.49 150.571C353.779 151.016 353.214 151.672 352.792 152.538C352.376 153.405 352.167 154.468 352.167 155.727C352.167 156.987 352.376 158.05 352.792 158.916C353.214 159.783 353.779 160.438 354.49 160.884C355.205 161.329 356.002 161.551 356.883 161.551C357.366 161.551 357.83 161.485 358.275 161.352C358.72 161.22 359.125 161.023 359.49 160.763C359.859 160.498 360.172 160.173 360.427 159.79C360.688 159.402 360.87 158.956 360.974 158.455H362.735C362.603 159.198 362.361 159.863 362.011 160.45C361.661 161.037 361.225 161.537 360.704 161.949C360.183 162.356 359.599 162.666 358.95 162.879C358.306 163.092 357.617 163.199 356.883 163.199C355.643 163.199 354.539 162.896 353.574 162.29C352.608 161.684 351.848 160.822 351.294 159.705C350.74 158.587 350.463 157.261 350.463 155.727C350.463 154.193 350.74 152.867 351.294 151.75C351.848 150.633 352.608 149.771 353.574 149.165C354.539 148.559 355.643 148.256 356.883 148.256C357.617 148.256 358.306 148.362 358.95 148.575C359.599 148.788 360.183 149.101 360.704 149.513C361.225 149.92 361.661 150.417 362.011 151.004C362.361 151.587 362.603 152.252 362.735 153ZM366.317 148.455L370.067 154.506H370.18L373.93 148.455H376.004L371.43 155.727L376.004 163H373.93L370.18 157.062H370.067L366.317 163H364.243L368.93 155.727L364.243 148.455H366.317Z" fill="black"/>
<path d="M160.226 451V436.455H161.988V442.932H169.743V436.455H171.505V451H169.743V444.494H161.988V451H160.226ZM186.735 441H184.974C184.87 440.493 184.688 440.048 184.427 439.665C184.172 439.281 183.859 438.959 183.49 438.699C183.125 438.434 182.72 438.235 182.275 438.102C181.83 437.97 181.366 437.903 180.883 437.903C180.002 437.903 179.205 438.126 178.49 438.571C177.779 439.016 177.214 439.672 176.792 440.538C176.376 441.405 176.167 442.468 176.167 443.727C176.167 444.987 176.376 446.05 176.792 446.916C177.214 447.783 177.779 448.438 178.49 448.884C179.205 449.329 180.002 449.551 180.883 449.551C181.366 449.551 181.83 449.485 182.275 449.352C182.72 449.22 183.125 449.023 183.49 448.763C183.859 448.498 184.172 448.173 184.427 447.79C184.688 447.402 184.87 446.956 184.974 446.455H186.735C186.603 447.198 186.361 447.863 186.011 448.45C185.661 449.037 185.225 449.537 184.704 449.949C184.183 450.356 183.599 450.666 182.95 450.879C182.306 451.092 181.617 451.199 180.883 451.199C179.643 451.199 178.539 450.896 177.574 450.29C176.608 449.684 175.848 448.822 175.294 447.705C174.74 446.587 174.463 445.261 174.463 443.727C174.463 442.193 174.74 440.867 175.294 439.75C175.848 438.633 176.608 437.771 177.574 437.165C178.539 436.559 179.643 436.256 180.883 436.256C181.617 436.256 182.306 436.362 182.95 436.575C183.599 436.788 184.183 437.101 184.704 437.513C185.225 437.92 185.661 438.417 186.011 439.004C186.361 439.587 186.603 440.252 186.735 441ZM190.317 436.455L194.067 442.506H194.18L197.93 436.455H200.004L195.43 443.727L200.004 451H197.93L194.18 445.062H194.067L190.317 451H188.243L192.93 443.727L188.243 436.455H190.317Z" fill="black"/>
<path d="M579.226 346V331.455H580.988V337.932H588.743V331.455H590.505V346H588.743V339.494H580.988V346H579.226ZM605.735 336H603.974C603.87 335.493 603.688 335.048 603.427 334.665C603.172 334.281 602.859 333.959 602.49 333.699C602.125 333.434 601.72 333.235 601.275 333.102C600.83 332.97 600.366 332.903 599.883 332.903C599.002 332.903 598.205 333.126 597.49 333.571C596.779 334.016 596.214 334.672 595.792 335.538C595.376 336.405 595.167 337.468 595.167 338.727C595.167 339.987 595.376 341.05 595.792 341.916C596.214 342.783 596.779 343.438 597.49 343.884C598.205 344.329 599.002 344.551 599.883 344.551C600.366 344.551 600.83 344.485 601.275 344.352C601.72 344.22 602.125 344.023 602.49 343.763C602.859 343.498 603.172 343.173 603.427 342.79C603.688 342.402 603.87 341.956 603.974 341.455H605.735C605.603 342.198 605.361 342.863 605.011 343.45C604.661 344.037 604.225 344.537 603.704 344.949C603.183 345.356 602.599 345.666 601.95 345.879C601.306 346.092 600.617 346.199 599.883 346.199C598.643 346.199 597.539 345.896 596.574 345.29C595.608 344.684 594.848 343.822 594.294 342.705C593.74 341.587 593.463 340.261 593.463 338.727C593.463 337.193 593.74 335.867 594.294 334.75C594.848 333.633 595.608 332.771 596.574 332.165C597.539 331.559 598.643 331.256 599.883 331.256C600.617 331.256 601.306 331.362 601.95 331.575C602.599 331.788 603.183 332.101 603.704 332.513C604.225 332.92 604.661 333.417 605.011 334.004C605.361 334.587 605.603 335.252 605.735 336ZM609.317 331.455L613.067 337.506H613.18L616.93 331.455H619.004L614.43 338.727L619.004 346H616.93L613.18 340.062H613.067L609.317 346H607.243L611.93 338.727L607.243 331.455H609.317Z" fill="black"/>
<path d="M529.226 228V213.455H530.988V219.932H538.743V213.455H540.505V228H538.743V221.494H530.988V228H529.226ZM555.735 218H553.974C553.87 217.493 553.688 217.048 553.427 216.665C553.172 216.281 552.859 215.959 552.49 215.699C552.125 215.434 551.72 215.235 551.275 215.102C550.83 214.97 550.366 214.903 549.883 214.903C549.002 214.903 548.205 215.126 547.49 215.571C546.779 216.016 546.214 216.672 545.792 217.538C545.376 218.405 545.167 219.468 545.167 220.727C545.167 221.987 545.376 223.05 545.792 223.916C546.214 224.783 546.779 225.438 547.49 225.884C548.205 226.329 549.002 226.551 549.883 226.551C550.366 226.551 550.83 226.485 551.275 226.352C551.72 226.22 552.125 226.023 552.49 225.763C552.859 225.498 553.172 225.173 553.427 224.79C553.688 224.402 553.87 223.956 553.974 223.455H555.735C555.603 224.198 555.361 224.863 555.011 225.45C554.661 226.037 554.225 226.537 553.704 226.949C553.183 227.356 552.599 227.666 551.95 227.879C551.306 228.092 550.617 228.199 549.883 228.199C548.643 228.199 547.539 227.896 546.574 227.29C545.608 226.684 544.848 225.822 544.294 224.705C543.74 223.587 543.463 222.261 543.463 220.727C543.463 219.193 543.74 217.867 544.294 216.75C544.848 215.633 545.608 214.771 546.574 214.165C547.539 213.559 548.643 213.256 549.883 213.256C550.617 213.256 551.306 213.362 551.95 213.575C552.599 213.788 553.183 214.101 553.704 214.513C554.225 214.92 554.661 215.417 555.011 216.004C555.361 216.587 555.603 217.252 555.735 218ZM559.317 213.455L563.067 219.506H563.18L566.93 213.455H569.004L564.43 220.727L569.004 228H566.93L563.18 222.062H563.067L559.317 228H557.243L561.93 220.727L557.243 213.455H559.317Z" fill="black"/>
<g clip-path="url(#clip3_24_1093)">
<path d="M663 344.015H659V358.015H663V344.015Z" fill="#673AB7"/>
<path d="M675 344.015H671V358.015H675V344.015Z" fill="#673AB7"/>
<path d="M693 336.015L673 326.015L653 336.015V340.015H693V336.015ZM661.94 336.015L673 330.495L684.06 336.015H661.94Z" fill="#673AB7"/>
<path d="M653 362.015V366.015H677.8C677.38 364.735 677.16 363.395 677.08 362.015H653Z" fill="#673AB7"/>
<path d="M687 348.535V344.015H683V350.535L687 348.535Z" fill="#673AB7"/>
<path d="M689 352.015L681 356.015V361.115C681 366.155 684.42 370.875 689 372.015C693.58 370.875 697 366.155 697 361.115V356.015L689 352.015ZM687.56 366.015L683.5 361.955L685.62 359.835L687.56 361.775L692.38 357.015L694.5 359.135L687.56 366.015Z" fill="#673AB7"/>
</g>
<g clip-path="url(#clip4_24_1093)">
<path d="M632 232.015H628V246.015H632V232.015Z" fill="#673AB7"/>
<path d="M644 232.015H640V246.015H644V232.015Z" fill="#673AB7"/>
<path d="M662 224.015L642 214.015L622 224.015V228.015H662V224.015ZM630.94 224.015L642 218.495L653.06 224.015H630.94Z" fill="#673AB7"/>
<path d="M622 250.015V254.015H646.8C646.38 252.735 646.16 251.395 646.08 250.015H622Z" fill="#673AB7"/>
<path d="M656 236.535V232.015H652V238.535L656 236.535Z" fill="#673AB7"/>
<path d="M658 240.015L650 244.015V249.115C650 254.155 653.42 258.875 658 260.015C662.58 258.875 666 254.155 666 249.115V244.015L658 240.015ZM656.56 254.015L652.5 249.955L654.62 247.835L656.56 249.775L661.38 245.015L663.5 247.135L656.56 254.015Z" fill="#673AB7"/>
</g>
<g clip-path="url(#clip5_24_1093)">
<path d="M444 16H428C425.24 16 423 18.24 423 21V55C423 57.76 425.24 60 428 60H444C446.76 60 449 57.76 449 55V21C449 18.24 446.76 16 444 16ZM436 58C434.34 58 433 56.66 433 55C433 53.34 434.34 52 436 52C437.66 52 439 53.34 439 55C439 56.66 437.66 58 436 58ZM445 50H427V22H445V50Z" fill="#673AB7"/>
</g>
<g clip-path="url(#clip6_24_1093)">
<path d="M295 333L277 325L259 333V345C259 356.1 266.68 366.48 277 369C281.6 367.88 285.66 365.2 288.76 361.58L282.52 355.34C278.64 357.92 273.36 357.48 269.94 354.06C266.04 350.16 266.04 343.82 269.94 339.92C273.84 336.02 280.18 336.02 284.08 339.92C287.5 343.34 287.92 348.62 285.36 352.5L291.16 358.3C293.58 354.38 295 349.76 295 345V333Z" fill="#673AB7"/>
<path d="M277 353C280.314 353 283 350.314 283 347C283 343.686 280.314 341 277 341C273.686 341 271 343.686 271 347C271 350.314 273.686 353 277 353Z" fill="#673AB7"/>
</g>
<defs>
<clipPath id="clip0_24_1093">
<rect width="48" height="48" fill="white" transform="translate(253 100)"/>
</clipPath>
<clipPath id="clip1_24_1093">
<rect width="48" height="48" fill="white" transform="translate(15 323.015)"/>
</clipPath>
<clipPath id="clip2_24_1093">
<rect width="48" height="48" fill="white" transform="translate(76 76.0146)"/>
</clipPath>
<clipPath id="clip3_24_1093">
<rect width="48" height="48" fill="white" transform="translate(649 324.015)"/>
</clipPath>
<clipPath id="clip4_24_1093">
<rect width="48" height="48" fill="white" transform="translate(618 212.015)"/>
</clipPath>
<clipPath id="clip5_24_1093">
<rect width="48" height="48" fill="white" transform="translate(413 14)"/>
</clipPath>
<clipPath id="clip6_24_1093">
<rect width="48" height="48" fill="white" transform="translate(253 323)"/>
</clipPath>
</defs>
</svg>
