<svg width="634" height="304" viewBox="0 0 634 304" fill="none" xmlns="http://www.w3.org/2000/svg">
<g clip-path="url(#clip0_28_164)">
<path d="M145.267 265.667C146.835 253.053 154.649 240.624 166.675 236.519C161.932 249.502 161.933 263.746 166.678 276.729C168.526 281.73 171.101 287.099 169.363 292.139C168.282 295.274 165.636 297.674 162.679 299.174C159.721 300.674 156.439 301.389 153.198 302.09L152.56 302.617C147.415 290.995 143.699 278.282 145.267 265.667Z" fill="#F0F0F0"/>
<path d="M166.794 236.757C159.791 244.607 155.439 254.465 154.355 264.931C154.081 267.179 154.164 269.457 154.6 271.68C155.094 273.832 156.156 275.812 157.674 277.415C159.059 278.938 160.653 280.335 161.644 282.168C162.137 283.114 162.425 284.154 162.489 285.219C162.553 286.284 162.391 287.351 162.014 288.349C161.138 290.86 159.413 292.907 157.657 294.85C155.707 297.008 153.647 299.218 152.818 302.078C152.717 302.424 152.186 302.248 152.286 301.902C153.728 296.926 158.557 294.099 160.86 289.617C161.934 287.526 162.385 285.098 161.378 282.89C160.497 280.96 158.855 279.517 157.439 277.988C155.935 276.446 154.832 274.559 154.225 272.492C153.677 270.299 153.507 268.028 153.721 265.777C154.122 260.702 155.319 255.721 157.267 251.018C159.46 245.638 162.557 240.672 166.424 236.337C166.663 236.069 167.032 236.49 166.794 236.757Z" fill="white"/>
<path d="M154.505 261.54C152.775 261.12 151.25 260.098 150.203 258.657C149.156 257.215 148.656 255.449 148.791 253.673C148.819 253.313 149.379 253.341 149.35 253.701C149.222 255.354 149.688 257 150.666 258.34C151.643 259.68 153.067 260.626 154.681 261.008C155.032 261.092 154.854 261.623 154.505 261.54Z" fill="white"/>
<path d="M156.87 276.735C159.995 274.868 162.302 271.891 163.331 268.398C163.433 268.052 163.965 268.228 163.863 268.574C162.785 272.207 160.378 275.3 157.121 277.236C156.811 277.42 156.561 276.919 156.87 276.735Z" fill="white"/>
<path d="M159.979 246.168C160.615 246.47 161.316 246.61 162.019 246.574C162.722 246.538 163.405 246.328 164.007 245.963C164.315 245.775 164.564 246.277 164.258 246.464C163.592 246.864 162.837 247.095 162.06 247.136C161.284 247.177 160.509 247.027 159.804 246.7C159.735 246.675 159.678 246.624 159.645 246.558C159.612 246.493 159.605 246.417 159.626 246.346C159.649 246.276 159.7 246.218 159.766 246.184C159.832 246.151 159.909 246.145 159.979 246.168Z" fill="white"/>
<path d="M203.33 259.049C203.141 259.172 202.952 259.295 202.763 259.423C200.231 261.089 197.837 262.958 195.607 265.012C195.433 265.168 195.258 265.329 195.087 265.489C189.768 270.495 185.423 276.445 182.274 283.037C181.024 285.661 179.974 288.376 179.136 291.16C177.978 295.004 177.028 299.265 174.735 302.409C174.5 302.74 174.244 303.055 173.97 303.355H153.253C153.206 303.331 153.159 303.312 153.112 303.288L152.285 303.326C152.318 303.18 152.355 303.028 152.389 302.882C152.408 302.797 152.431 302.712 152.45 302.626C152.464 302.57 152.478 302.513 152.488 302.461C152.492 302.442 152.497 302.423 152.502 302.409C152.511 302.357 152.526 302.31 152.535 302.262C152.743 301.416 152.957 300.57 153.178 299.723C153.178 299.718 153.178 299.718 153.183 299.714C154.801 293.248 157.181 286.998 160.272 281.093C160.367 280.918 160.461 280.739 160.565 280.564C161.997 277.95 163.639 275.458 165.476 273.112C166.486 271.83 167.561 270.601 168.695 269.428C171.632 266.404 175.026 263.86 178.753 261.891C186.183 257.966 194.785 256.463 202.726 258.86C202.929 258.922 203.127 258.983 203.33 259.049Z" fill="#F0F0F0"/>
<path d="M203.284 259.312C192.968 261.362 183.56 266.611 176.396 274.315C174.824 275.946 173.52 277.814 172.53 279.852C171.629 281.868 171.285 284.088 171.533 286.282C171.722 288.332 172.154 290.408 171.842 292.469C171.667 293.521 171.271 294.525 170.681 295.413C170.091 296.302 169.32 297.056 168.418 297.626C166.208 299.104 163.598 299.699 161.027 300.193C158.171 300.741 155.196 301.265 152.813 303.049C152.524 303.265 152.206 302.804 152.494 302.588C156.641 299.484 162.197 300.135 166.733 297.944C168.85 296.921 170.671 295.254 171.195 292.885C171.654 290.813 171.211 288.672 171.001 286.598C170.728 284.461 170.982 282.29 171.741 280.274C172.625 278.193 173.855 276.277 175.381 274.609C178.756 270.798 182.708 267.542 187.094 264.96C192.083 261.985 197.544 259.886 203.241 258.754C203.594 258.684 203.634 259.243 203.284 259.312Z" fill="white"/>
<path d="M178.557 271.698C177.428 270.32 176.826 268.586 176.857 266.805C176.889 265.024 177.552 263.312 178.729 261.975C178.968 261.705 179.398 262.064 179.159 262.334C178.061 263.577 177.443 265.172 177.417 266.83C177.391 268.489 177.959 270.103 179.017 271.379C179.247 271.657 178.785 271.975 178.557 271.698Z" fill="white"/>
<path d="M171.3 285.255C174.919 285.647 178.552 284.66 181.476 282.49C181.766 282.275 182.084 282.736 181.795 282.951C178.748 285.203 174.965 286.222 171.199 285.806C170.841 285.766 170.943 285.215 171.3 285.255Z" fill="white"/>
<path d="M192.179 262.722C192.504 263.346 192.98 263.88 193.563 264.275C194.145 264.67 194.817 264.913 195.517 264.984C195.876 265.02 195.774 265.571 195.417 265.536C194.644 265.454 193.902 265.183 193.258 264.749C192.613 264.314 192.084 263.727 191.718 263.041C191.678 262.979 191.663 262.905 191.677 262.832C191.69 262.76 191.73 262.695 191.789 262.651C191.85 262.609 191.925 262.593 191.998 262.607C192.071 262.62 192.136 262.661 192.179 262.722Z" fill="white"/>
<path d="M518.126 270.128C516.77 259.223 510.014 248.478 499.618 244.929C503.718 256.153 503.717 268.467 499.616 279.691C498.018 284.014 495.791 288.656 497.294 293.013C498.229 295.724 500.516 297.798 503.073 299.095C505.63 300.392 508.467 301.01 511.269 301.616L511.82 302.072C516.268 292.024 519.481 281.034 518.126 270.128Z" fill="#F0F0F0"/>
<path d="M499.515 245.135C505.569 251.921 509.332 260.443 510.269 269.491C510.505 271.435 510.434 273.405 510.057 275.327C509.63 277.187 508.712 278.899 507.4 280.284C506.202 281.601 504.825 282.809 503.968 284.394C503.541 285.211 503.292 286.11 503.237 287.031C503.182 287.952 503.322 288.874 503.648 289.736C504.405 291.908 505.896 293.677 507.414 295.357C509.1 297.222 510.881 299.133 511.598 301.605C511.685 301.905 512.144 301.753 512.057 301.453C510.811 297.151 506.636 294.708 504.645 290.833C503.717 289.025 503.327 286.926 504.197 285.017C504.959 283.349 506.378 282.102 507.603 280.779C508.903 279.446 509.857 277.815 510.382 276.028C510.855 274.132 511.002 272.169 510.817 270.223C510.47 265.835 509.436 261.529 507.752 257.463C505.856 252.812 503.178 248.52 499.835 244.772C499.628 244.54 499.309 244.904 499.515 245.135Z" fill="white"/>
<path d="M510.139 266.56C511.635 266.197 512.953 265.313 513.858 264.067C514.763 262.821 515.196 261.294 515.079 259.759C515.054 259.448 514.571 259.472 514.595 259.783C514.707 261.213 514.303 262.635 513.458 263.794C512.613 264.952 511.382 265.77 509.987 266.1C509.684 266.172 509.837 266.632 510.139 266.56Z" fill="white"/>
<path d="M508.095 279.697C505.393 278.083 503.398 275.509 502.509 272.489C502.421 272.19 501.961 272.342 502.049 272.641C502.98 275.782 505.062 278.456 507.877 280.13C508.146 280.289 508.362 279.855 508.095 279.697Z" fill="white"/>
<path d="M505.407 253.271C504.857 253.532 504.251 253.653 503.643 253.622C503.036 253.591 502.445 253.41 501.925 253.094C501.659 252.931 501.443 253.365 501.707 253.527C502.284 253.873 502.936 254.072 503.607 254.108C504.279 254.143 504.949 254.014 505.558 253.731C505.618 253.709 505.667 253.665 505.696 253.608C505.724 253.551 505.73 253.486 505.712 253.425C505.692 253.364 505.648 253.314 505.591 253.285C505.534 253.256 505.467 253.251 505.407 253.271Z" fill="white"/>
<path d="M467.929 264.407C468.092 264.513 468.256 264.62 468.419 264.73C470.609 266.17 472.678 267.786 474.606 269.562C474.757 269.697 474.908 269.836 475.055 269.975C479.654 274.302 483.41 279.446 486.132 285.144C487.214 287.413 488.121 289.761 488.846 292.167C489.847 295.491 490.668 299.174 492.65 301.892C492.853 302.178 493.074 302.451 493.312 302.71H511.221C511.262 302.689 511.303 302.673 511.344 302.652L512.059 302.685C512.03 302.558 511.997 302.428 511.969 302.301C511.952 302.227 511.932 302.154 511.916 302.08C511.904 302.031 511.891 301.982 511.883 301.937C511.879 301.921 511.875 301.904 511.871 301.892C511.863 301.847 511.85 301.806 511.842 301.765C511.662 301.034 511.477 300.302 511.286 299.57C511.286 299.566 511.286 299.566 511.282 299.562C509.883 293.973 507.825 288.569 505.153 283.464C505.071 283.313 504.99 283.158 504.9 283.007C503.663 280.747 502.243 278.592 500.654 276.564C499.781 275.456 498.852 274.394 497.872 273.38C495.333 270.765 492.399 268.566 489.177 266.864C482.753 263.471 475.317 262.171 468.452 264.244C468.276 264.297 468.105 264.35 467.929 264.407Z" fill="#F0F0F0"/>
<path d="M467.969 264.634C476.887 266.406 485.021 270.944 491.214 277.604C492.573 279.014 493.701 280.629 494.557 282.391C495.335 284.134 495.633 286.053 495.419 287.95C495.255 289.723 494.882 291.517 495.151 293.298C495.303 294.208 495.645 295.076 496.155 295.844C496.665 296.613 497.332 297.264 498.112 297.757C500.022 299.035 502.278 299.549 504.501 299.976C506.97 300.45 509.541 300.902 511.602 302.445C511.851 302.632 512.127 302.234 511.877 302.047C508.293 299.363 503.489 299.926 499.568 298.032C497.738 297.147 496.164 295.706 495.71 293.658C495.314 291.867 495.697 290.016 495.878 288.223C496.114 286.376 495.895 284.499 495.238 282.756C494.475 280.957 493.411 279.3 492.092 277.858C489.174 274.564 485.757 271.749 481.966 269.517C477.652 266.945 472.931 265.13 468.006 264.151C467.702 264.091 467.666 264.574 467.969 264.634Z" fill="white"/>
<path d="M489.346 275.343C490.322 274.151 490.843 272.652 490.815 271.112C490.788 269.572 490.215 268.092 489.197 266.936C488.991 266.703 488.619 267.013 488.826 267.247C489.775 268.321 490.309 269.7 490.331 271.134C490.354 272.568 489.863 273.963 488.948 275.067C488.749 275.307 489.148 275.581 489.346 275.343Z" fill="white"/>
<path d="M495.62 287.062C492.491 287.401 489.35 286.548 486.822 284.672C486.572 284.486 486.297 284.885 486.546 285.07C489.181 287.017 492.451 287.899 495.707 287.539C496.017 287.505 495.929 287.028 495.62 287.062Z" fill="white"/>
<path d="M477.57 267.582C477.288 268.122 476.877 268.583 476.373 268.925C475.87 269.266 475.289 269.477 474.684 269.538C474.373 269.569 474.462 270.045 474.77 270.015C475.439 269.944 476.08 269.71 476.637 269.334C477.195 268.958 477.651 268.451 477.968 267.858C478.002 267.805 478.015 267.74 478.004 267.678C477.993 267.615 477.958 267.559 477.907 267.521C477.854 267.485 477.789 267.471 477.726 267.482C477.663 267.494 477.607 267.53 477.57 267.582Z" fill="white"/>
<path d="M555.508 22.0311H134.031C133.869 22.0311 133.713 21.9666 133.599 21.8518C133.484 21.7371 133.42 21.5814 133.42 21.4191C133.42 21.2568 133.484 21.1011 133.599 20.9864C133.713 20.8716 133.869 20.8071 134.031 20.8071H555.508C555.67 20.8071 555.825 20.8716 555.94 20.9864C556.055 21.1011 556.119 21.2568 556.119 21.4191C556.119 21.5814 556.055 21.7371 555.94 21.8518C555.825 21.9666 555.67 22.0311 555.508 22.0311Z" fill="#CACACA"/>
<path d="M147.8 13.4634C151.516 13.4634 154.529 10.4495 154.529 6.73172C154.529 3.01389 151.516 0 147.8 0C144.084 0 141.071 3.01389 141.071 6.73172C141.071 10.4495 144.084 13.4634 147.8 13.4634Z" fill="#3F3D56"/>
<path d="M171.045 13.4634C174.762 13.4634 177.774 10.4495 177.774 6.73172C177.774 3.01389 174.762 0 171.045 0C167.329 0 164.316 3.01389 164.316 6.73172C164.316 10.4495 167.329 13.4634 171.045 13.4634Z" fill="#3F3D56"/>
<path d="M194.291 13.4634C198.007 13.4634 201.02 10.4495 201.02 6.73172C201.02 3.01389 198.007 0 194.291 0C190.574 0 187.562 3.01389 187.562 6.73172C187.562 10.4495 190.574 13.4634 194.291 13.4634Z" fill="#3F3D56"/>
<path d="M541.58 4.11782H525.064C524.739 4.11782 524.428 3.98887 524.198 3.75933C523.969 3.5298 523.84 3.21848 523.84 2.89387C523.84 2.56926 523.969 2.25794 524.198 2.02841C524.428 1.79887 524.739 1.66993 525.064 1.66993H541.58C541.741 1.66956 541.9 1.70094 542.049 1.76229C542.198 1.82363 542.333 1.91372 542.447 2.02741C542.561 2.1411 542.651 2.27615 542.713 2.42483C542.775 2.57351 542.806 2.7329 542.806 2.89387C542.806 3.05484 542.775 3.21423 542.713 3.36291C542.651 3.51159 542.561 3.64664 542.447 3.76033C542.333 3.87402 542.198 3.96411 542.049 4.02546C541.9 4.0868 541.741 4.11819 541.58 4.11782Z" fill="#3F3D56"/>
<path d="M541.58 8.70718H525.064C524.739 8.70718 524.428 8.57823 524.198 8.3487C523.969 8.11916 523.84 7.80784 523.84 7.48323C523.84 7.15862 523.969 6.8473 524.198 6.61777C524.428 6.38823 524.739 6.25928 525.064 6.25928H541.58C541.905 6.25928 542.216 6.38823 542.445 6.61777C542.675 6.8473 542.803 7.15862 542.803 7.48323C542.803 7.80784 542.675 8.11916 542.445 8.3487C542.216 8.57823 541.904 8.70718 541.58 8.70718Z" fill="#3F3D56"/>
<path d="M541.58 13.297H525.064C524.739 13.297 524.428 13.1681 524.198 12.9385C523.969 12.709 523.84 12.3977 523.84 12.0731C523.84 11.7485 523.969 11.4371 524.198 11.2076C524.428 10.9781 524.739 10.8491 525.064 10.8491H541.58C541.741 10.8488 541.9 10.8801 542.049 10.9415C542.198 11.0028 542.333 11.0929 542.447 11.2066C542.561 11.3203 542.651 11.4554 542.713 11.604C542.775 11.7527 542.806 11.9121 542.806 12.0731C542.806 12.234 542.775 12.3934 542.713 12.5421C542.651 12.6908 542.561 12.8258 542.447 12.9395C542.333 13.0532 542.198 13.1433 542.049 13.2047C541.9 13.266 541.741 13.2974 541.58 13.297Z" fill="#3F3D56"/>
<path d="M542.804 48.2739H454.716V101.11H542.804V48.2739Z" fill="#E3E2F5"/>
<path d="M525.23 125.382H472.817C472.163 125.381 471.536 125.121 471.074 124.658C470.612 124.194 470.353 123.567 470.353 122.913C470.353 122.258 470.612 121.631 471.074 121.168C471.536 120.705 472.163 120.444 472.817 120.443H525.23C525.884 120.443 526.512 120.703 526.975 121.166C527.438 121.629 527.698 122.258 527.698 122.913C527.698 123.568 527.438 124.196 526.975 124.659C526.512 125.122 525.884 125.382 525.23 125.382Z" fill="#E4E4E4"/>
<path d="M516.779 116.929H481.268C480.943 116.929 480.622 116.866 480.322 116.742C480.022 116.618 479.749 116.436 479.52 116.207C479.29 115.977 479.108 115.705 478.983 115.405C478.859 115.105 478.795 114.784 478.795 114.459C478.795 114.134 478.859 113.813 478.983 113.513C479.108 113.213 479.29 112.941 479.52 112.711C479.749 112.482 480.022 112.3 480.322 112.176C480.622 112.052 480.943 111.989 481.268 111.989H516.779C517.103 111.989 517.425 112.052 517.725 112.176C518.025 112.3 518.297 112.482 518.527 112.711C518.757 112.941 518.939 113.213 519.063 113.513C519.188 113.813 519.252 114.134 519.252 114.459C519.252 114.784 519.188 115.105 519.063 115.405C518.939 115.705 518.757 115.977 518.527 116.207C518.297 116.436 518.025 116.618 517.725 116.742C517.425 116.866 517.103 116.929 516.779 116.929Z" fill="#E4E4E4"/>
<path d="M542.804 144.354H454.716V197.19H542.804V144.354Z" fill="#F0F0F0"/>
<path d="M525.229 221.462H472.817C472.163 221.462 471.535 221.202 471.072 220.739C470.609 220.276 470.349 219.648 470.349 218.993C470.349 218.338 470.609 217.709 471.072 217.246C471.535 216.783 472.163 216.523 472.817 216.523H525.229C525.884 216.523 526.512 216.783 526.975 217.246C527.438 217.709 527.698 218.338 527.698 218.993C527.698 219.648 527.438 220.276 526.975 220.739C526.512 221.202 525.884 221.462 525.229 221.462Z" fill="#E4E4E4"/>
<path d="M516.779 213.008H481.268C480.613 213.008 479.985 212.748 479.522 212.285C479.059 211.822 478.799 211.194 478.799 210.539C478.799 209.884 479.059 209.255 479.522 208.792C479.985 208.329 480.613 208.069 481.268 208.069H516.779C517.434 208.069 518.062 208.329 518.525 208.792C518.988 209.255 519.248 209.884 519.248 210.539C519.248 211.194 518.988 211.822 518.525 212.285C518.062 212.748 517.434 213.008 516.779 213.008Z" fill="#E4E4E4"/>
<path d="M409.545 85.3188H143.65C142.995 85.3188 142.367 85.0586 141.904 84.5954C141.441 84.1323 141.181 83.5041 141.181 82.8491C141.181 82.1941 141.441 81.5659 141.904 81.1028C142.367 80.6396 142.995 80.3794 143.65 80.3794H409.545C410.2 80.3794 410.828 80.6396 411.291 81.1028C411.754 81.5659 412.014 82.1941 412.014 82.8491C412.014 83.5041 411.754 84.1323 411.291 84.5954C410.828 85.0586 410.2 85.3188 409.545 85.3188Z" fill="#E4E4E4"/>
<path d="M409.545 104.03H143.65C142.995 104.03 142.367 103.77 141.904 103.307C141.441 102.844 141.181 102.216 141.181 101.561C141.181 100.906 141.441 100.277 141.904 99.8142C142.367 99.351 142.995 99.0908 143.65 99.0908H409.545C410.2 99.0908 410.828 99.351 411.291 99.8142C411.754 100.277 412.014 100.906 412.014 101.561C412.014 102.216 411.754 102.844 411.291 103.307C410.828 103.77 410.2 104.03 409.545 104.03Z" fill="#E4E4E4"/>
<path d="M409.545 122.742H143.65C142.995 122.742 142.367 122.482 141.904 122.019C141.441 121.556 141.181 120.927 141.181 120.272C141.181 119.617 141.441 118.989 141.904 118.526C142.367 118.063 142.995 117.803 143.65 117.803H409.545C410.2 117.803 410.828 118.063 411.291 118.526C411.754 118.989 412.014 119.617 412.014 120.272C412.014 120.927 411.754 121.556 411.291 122.019C410.828 122.482 410.2 122.742 409.545 122.742Z" fill="#E4E4E4"/>
<path d="M409.545 141.454H143.65C142.995 141.454 142.367 141.194 141.904 140.731C141.441 140.268 141.181 139.639 141.181 138.984C141.181 138.329 141.441 137.701 141.904 137.238C142.367 136.775 142.995 136.515 143.65 136.515H409.545C410.2 136.515 410.828 136.775 411.291 137.238C411.754 137.701 412.014 138.329 412.014 138.984C412.014 139.639 411.754 140.268 411.291 140.731C410.828 141.194 410.2 141.454 409.545 141.454Z" fill="#E4E4E4"/>
<path d="M409.545 178.877H143.65C142.995 178.877 142.367 178.617 141.904 178.154C141.441 177.691 141.181 177.063 141.181 176.408C141.181 175.753 141.441 175.125 141.904 174.661C142.367 174.198 142.995 173.938 143.65 173.938H409.545C410.2 173.938 410.828 174.198 411.291 174.661C411.754 175.125 412.014 175.753 412.014 176.408C412.014 177.063 411.754 177.691 411.291 178.154C410.828 178.617 410.2 178.877 409.545 178.877Z" fill="#E4E4E4"/>
<path d="M409.545 197.589H143.65C142.995 197.589 142.367 197.329 141.904 196.865C141.441 196.402 141.181 195.774 141.181 195.119C141.181 194.464 141.441 193.836 141.904 193.373C142.367 192.91 142.995 192.649 143.65 192.649H409.545C410.2 192.649 410.828 192.91 411.291 193.373C411.754 193.836 412.014 194.464 412.014 195.119C412.014 195.774 411.754 196.402 411.291 196.865C410.828 197.329 410.2 197.589 409.545 197.589Z" fill="#E4E4E4"/>
<path d="M365.621 66.541H187.573C187.249 66.5415 186.927 66.478 186.627 66.3541C186.327 66.2303 186.055 66.0484 185.825 65.819C185.595 65.5897 185.413 65.3172 185.289 65.0173C185.164 64.7174 185.1 64.3959 185.1 64.0713C185.1 63.7466 185.164 63.4251 185.289 63.1252C185.413 62.8253 185.595 62.5529 185.825 62.3235C186.055 62.0941 186.327 61.9123 186.627 61.7884C186.927 61.6645 187.249 61.601 187.573 61.6016H365.621C365.946 61.601 366.267 61.6645 366.567 61.7884C366.867 61.9123 367.14 62.0941 367.37 62.3235C367.599 62.5529 367.781 62.8253 367.906 63.1252C368.03 63.4251 368.094 63.7466 368.094 64.0713C368.094 64.3959 368.03 64.7174 367.906 65.0173C367.781 65.3172 367.599 65.5897 367.37 65.819C367.14 66.0484 366.867 66.2303 366.567 66.3541C366.267 66.478 365.946 66.5415 365.621 66.541Z" fill="#E4E4E4"/>
<path d="M433.844 298.607H438.984L441.43 278.77L433.843 278.771L433.844 298.607Z" fill="#FFB6B6"/>
<path d="M432.532 296.928L442.656 296.927C444.367 296.927 446.009 297.607 447.219 298.818C448.429 300.028 449.108 301.67 449.108 303.381V303.591L432.533 303.592L432.532 296.928Z" fill="#26243D"/>
<path d="M407.569 298.607H412.71L415.155 278.77L407.568 278.771L407.569 298.607Z" fill="#FFB6B6"/>
<path d="M406.258 296.928L416.381 296.927C418.092 296.927 419.734 297.607 420.944 298.818C422.154 300.028 422.833 301.67 422.834 303.381V303.591L406.258 303.592L406.258 296.928Z" fill="#26243D"/>
<path d="M467.598 77.5581C467.598 76.6949 467.408 75.8424 467.039 75.0618C466.671 74.2813 466.134 73.5921 465.468 73.0438C464.801 72.4956 464.022 72.102 463.185 71.8912C462.348 71.6804 461.475 71.6578 460.629 71.8249C459.782 71.992 458.983 72.3447 458.289 72.8576C457.595 73.3706 457.024 74.031 456.615 74.7914C456.207 75.5518 455.972 76.3933 455.928 77.2553C455.884 78.1173 456.031 78.9785 456.359 79.7768L444.545 98.4753L437.191 113.302L443.26 118.691L447.93 113.774L463.205 83.2115C464.461 82.8909 465.574 82.1613 466.37 81.1377C467.165 80.114 467.597 78.8546 467.598 77.5581Z" fill="#FFB6B6"/>
<path d="M406.29 138.891L394.71 137.096L391.952 158.054L376.922 190.409C375.942 191.02 375.165 191.908 374.689 192.961C374.213 194.014 374.06 195.185 374.249 196.325C374.438 197.465 374.961 198.523 375.751 199.366C376.541 200.209 377.564 200.798 378.689 201.06C379.814 201.322 380.991 201.244 382.072 200.837C383.153 200.43 384.089 199.711 384.762 198.771C385.434 197.832 385.813 196.714 385.851 195.559C385.889 194.404 385.583 193.264 384.973 192.282L400.687 163.895L406.29 138.891Z" fill="#FFB6B6"/>
<path d="M412.707 173.805C412.707 173.805 402.524 183.225 403.818 206.912L406.671 243.504L405.951 294.512L416.411 293.69L425.548 208.207L434.306 243.255L431.162 289.942L441.237 290.176L451.823 237.414L449.314 198.303L445.099 173.805H412.707Z" fill="#26243D"/>
<path d="M423.602 118.642L399.273 125.456L411.643 162.535L409.794 176.719L447.306 176.962L438.619 149.546C438.619 149.546 443.494 139.516 437.927 132.486L423.602 118.642Z" fill="#E3E2F5"/>
<path d="M420.682 124.483L423.602 118.641C423.602 118.641 423.508 117.174 430.367 116.447L438.415 108.445L445.781 115.79L433.333 134.218L420.682 124.483Z" fill="#E3E2F5"/>
<path d="M409.005 130.324C409.005 130.324 400.246 120.589 395.381 125.456C390.515 130.324 393.01 145.802 393.01 145.802L408.165 148.155L409.005 130.324Z" fill="#E3E2F5"/>
<path d="M413.447 92.9014C428.363 92.9683 428.361 115.656 413.446 115.721C398.531 115.654 398.533 92.9663 413.447 92.9014Z" fill="#FFB6B6"/>
<path d="M415.107 103.557C417.124 104.745 419.219 105.96 421.545 106.214C423.87 106.469 426.504 105.49 427.437 103.343C427.729 102.6 427.883 101.809 427.894 101.01C428.099 96.9336 426.689 92.9405 423.97 89.8971C422.605 88.4053 420.935 87.2254 419.073 86.4379C417.211 85.6504 415.202 85.2738 413.181 85.3338C409.327 85.5014 405.766 87.3265 402.346 89.112C399.201 90.754 395.881 92.5632 394.172 95.6733C391.64 100.282 393.485 105.924 393.977 111.16C394.322 115.064 393.878 118.998 392.67 122.726C391.462 126.454 389.515 129.901 386.947 132.86L408.168 134.872C410.751 135.117 413.385 135.359 415.916 134.793C418.101 134.305 420.112 133.234 421.736 131.694C423.36 130.154 424.537 128.202 425.141 126.046C425.745 123.89 425.754 121.611 425.167 119.45C424.58 117.29 423.418 115.329 421.806 113.776C418.794 110.875 413.949 108.821 413.83 104.64" fill="#26243D"/>
<path d="M573.262 298.132H567.631L564.953 276.406H573.262L573.262 298.132Z" fill="#9F616A"/>
<path d="M574.698 303.592L556.543 303.591V303.362C556.543 301.487 557.288 299.689 558.613 298.363C559.938 297.037 561.735 296.293 563.609 296.292L574.698 296.293L574.698 303.592Z" fill="#26243D"/>
<path d="M625.617 298.132H619.986L617.308 276.406H625.617L625.617 298.132Z" fill="#9F616A"/>
<path d="M627.052 303.592L608.898 303.591V303.362C608.898 301.487 609.642 299.689 610.968 298.363C612.293 297.037 614.09 296.293 615.964 296.292L627.053 296.293L627.052 303.592Z" fill="#26243D"/>
<path d="M571.018 187.877C571.018 187.877 566.292 200.71 566.967 206.114C567.642 211.517 562.241 249.34 562.916 252.717C563.591 256.094 562.241 272.98 562.916 275.681C563.591 278.383 561.021 281.61 562.371 284.312C563.722 287.014 565.616 292.567 565.616 292.567L574.393 291.892L575.743 284.462C575.743 284.462 579.794 283.787 579.119 279.734C578.444 275.681 582.495 248.665 582.495 248.665L593.972 210.841L610.176 245.288C610.176 245.288 610.851 269.603 612.876 272.304C614.902 275.006 610.851 282.436 612.876 285.137C614.902 287.839 616.927 292.567 616.927 292.567H627.054V287.164C627.054 287.164 633.13 283.787 627.054 273.655L622.948 212.813L618.897 185.121L571.018 187.877Z" fill="#26243D"/>
<path d="M596.186 102.95C603.15 102.95 608.796 97.302 608.796 90.3349C608.796 83.3677 603.15 77.7197 596.186 77.7197C589.221 77.7197 583.576 83.3677 583.576 90.3349C583.576 97.302 589.221 102.95 596.186 102.95Z" fill="#A0616A"/>
<path d="M585.455 89.4648C586.345 91.7391 587.234 94.0134 588.124 96.2877C589.218 99.0837 590.471 102.075 593.035 103.635C596.201 105.562 600.428 104.623 603.491 102.536C606.245 100.659 608.36 97.9833 609.55 94.8691C610.74 91.7548 610.949 88.3508 610.149 85.1142C609.349 81.8776 607.578 78.9634 605.074 76.7631C602.57 74.5628 599.453 73.1818 596.142 72.8055L596.015 75.0891L593.214 72.7402C593.007 73.0958 592.722 73.3999 592.38 73.6295C592.039 73.8591 591.65 74.0083 591.242 74.066C590.835 74.1236 590.42 74.0881 590.028 73.9623C589.637 73.8364 589.278 73.6233 588.981 73.3391C589.717 74.865 588.867 76.7259 587.641 77.8948C586.134 79.3307 581.825 81.0565 582.004 83.6234C582.123 85.3364 584.76 87.6896 585.455 89.4648Z" fill="#26243D"/>
<path d="M630.896 206.538C631.331 205.89 631.618 205.153 631.738 204.382C631.857 203.61 631.806 202.822 631.588 202.072C631.37 201.322 630.99 200.629 630.475 200.042C629.96 199.455 629.323 198.988 628.608 198.674L628.86 186.47L621.485 184.508L621.371 201.747C620.923 202.983 620.944 204.341 621.43 205.562C621.916 206.784 622.832 207.785 624.007 208.376C625.181 208.966 626.531 209.105 627.8 208.767C629.07 208.428 630.172 207.635 630.896 206.538Z" fill="#9F616A"/>
<path d="M605.553 110.747C605.553 110.747 595.781 105.859 586.552 109.118C577.323 112.376 572.438 116.178 572.438 116.178L578.409 147.678L570.266 190.039C570.266 190.039 612.067 186.78 615.867 190.039C619.667 193.298 619.667 186.237 619.667 186.237L616.41 146.048L622.382 120.523L605.553 110.747Z" fill="#3F3D56"/>
<path d="M564.31 207.261C564.909 206.761 565.391 206.135 565.722 205.428C566.054 204.72 566.226 203.949 566.227 203.168C566.228 202.387 566.058 201.616 565.728 200.908C565.399 200.2 564.919 199.573 564.321 199.07L567.988 187.428L561.459 183.474L556.512 199.987C555.735 201.048 555.374 202.357 555.498 203.666C555.621 204.974 556.22 206.193 557.181 207.089C558.143 207.986 559.399 208.499 560.713 208.53C562.027 208.562 563.307 208.11 564.31 207.261Z" fill="#9F616A"/>
<path d="M576.238 116.178H572.438C572.438 116.178 566.466 119.979 566.466 125.41C566.466 130.841 557.78 194.384 557.78 194.384L567.009 196.013L575.152 151.479L581.123 139.531L576.238 116.178Z" fill="#3F3D56"/>
<path d="M612.067 120.522H622.382C622.382 120.522 625.639 123.781 627.268 131.384C628.896 138.988 630.525 168.858 630.525 168.858L629.439 196.013H621.296L620.21 160.712L614.782 137.902L612.067 120.522Z" fill="#3F3D56"/>
<path d="M133.947 156.664C133.687 156.79 133.437 156.937 133.199 157.102L109.051 147.659L108.094 141.431L98.5092 141.647L99.1326 152.838C99.183 153.742 99.5251 154.605 100.108 155.298C100.69 155.991 101.482 156.476 102.363 156.681L131.098 163.35C131.449 164.408 132.114 165.334 133.004 166.005C133.894 166.676 134.967 167.06 136.08 167.106C137.194 167.152 138.295 166.858 139.237 166.263C140.18 165.668 140.918 164.799 141.355 163.774C141.792 162.748 141.907 161.614 141.684 160.521C141.461 159.429 140.91 158.431 140.106 157.659C139.302 156.887 138.282 156.378 137.182 156.201C136.081 156.023 134.953 156.185 133.947 156.664Z" fill="#9F616A"/>
<path d="M97.6895 297.377L104.099 297.376L107.148 272.644H97.6882L97.6895 297.377Z" fill="#9F616A"/>
<path d="M96.0544 295.283L108.677 295.282C110.811 295.282 112.857 296.13 114.366 297.639C115.874 299.149 116.722 301.195 116.722 303.33V303.591L96.0548 303.592L96.0544 295.283Z" fill="#26243D"/>
<path d="M66.8434 297.377L73.2531 297.376L76.3025 272.644H66.8428L66.8434 297.377Z" fill="#9F616A"/>
<path d="M65.2086 295.283L77.8314 295.282C79.9648 295.282 82.0113 296.13 83.5198 297.639C85.0284 299.149 85.876 301.195 85.8761 303.33V303.591L65.209 303.592L65.2086 295.283Z" fill="#26243D"/>
<path d="M70.5602 108.808C68.7348 101.267 67.1883 92.763 70.6309 85.8184C73.0195 81 81.8559 79.3773 86.9213 81.1133C91.9867 82.8492 95.649 87.5588 97.2597 92.6938C98.8704 97.8288 98.6832 103.362 97.9812 108.7C88.6652 108.521 79.3493 108.342 70.5602 108.808Z" fill="#26243D"/>
<path d="M86.2812 108.806C92.2809 108.806 97.1446 103.94 97.1446 97.9377C97.1446 91.9355 92.2809 87.0698 86.2812 87.0698C80.2816 87.0698 75.4178 91.9355 75.4178 97.9377C75.4178 103.94 80.2816 108.806 86.2812 108.806Z" fill="#9F616A"/>
<path d="M73.0008 95.6994C72.9663 93.8702 73.2996 92.0528 73.981 90.3551C74.6624 88.6574 75.678 87.114 76.9674 85.8167C78.2567 84.5194 79.7936 83.4947 81.4867 82.8033C83.1798 82.1119 84.9945 81.7681 86.8231 81.7922C88.6516 81.8163 90.4566 82.2079 92.1309 82.9437C93.8052 83.6794 95.3145 84.7444 96.5693 86.0753C97.8241 87.4061 98.7986 88.9757 99.435 90.6908C100.071 92.4059 100.357 94.2315 100.274 96.059C90.9758 96.0787 81.6775 96.0985 73.0008 95.6994Z" fill="#26243D"/>
<path d="M77.2655 148.901L72.7223 156.476C72.7223 156.476 60.2799 179.822 61.0199 199.173L63.7734 223.276L60.7516 229.191L62.7743 239.598L59.0178 247.052L65.8083 283.042L66.0972 290.847H77.0776L76.4997 282.898L81.123 247.836L88.9248 210.401L92.9702 242.716L91.5254 250.81L93.4037 257.604L96.0043 278.562L96.2932 288.679L106.262 289.836L110.019 252.4L112.186 234.539L100.571 155.343L77.2655 148.901Z" fill="#26243D"/>
<path d="M75.8244 112.324L69.0605 115.198L65.2617 130.926L73.2603 151.419L70.2701 161.658C79.3215 177.147 90.5249 179.398 103.708 169.465C100.918 161.628 101.321 153.569 104.102 145.346C104.102 145.346 111.037 138.885 106.192 130.486L101.571 117.937L95.8496 115.076L75.8244 112.324Z" fill="#CBCBCB"/>
<path d="M100.239 120.673L101.774 117.82C101.774 117.82 105.823 118.43 107.477 123.306C109.131 128.183 109.561 147.884 109.561 147.884L100.897 148.323L100.239 120.673Z" fill="#CBCBCB"/>
<path d="M311.789 120.442L54.3075 186.828C53.6744 186.988 53.0035 186.891 52.4417 186.558C51.8799 186.225 51.4729 185.683 51.3099 185.05C51.1469 184.417 51.2412 183.746 51.5721 183.182C51.903 182.619 52.4435 182.21 53.0753 182.044L310.557 115.659C310.872 115.577 311.199 115.558 311.521 115.603C311.842 115.647 312.152 115.755 312.432 115.92C312.712 116.085 312.957 116.303 313.152 116.563C313.348 116.822 313.49 117.118 313.571 117.432C313.652 117.747 313.67 118.075 313.625 118.396C313.579 118.718 313.47 119.028 313.305 119.307C313.139 119.587 312.92 119.831 312.66 120.026C312.4 120.221 312.104 120.362 311.789 120.442Z" fill="#E3E2F5"/>
<path d="M66.295 187.54C67.0301 187.174 67.6761 186.651 68.1874 186.008C68.6987 185.365 69.0629 184.618 69.2544 183.82C69.4458 183.021 69.4599 182.19 69.2956 181.385C69.1313 180.58 68.7927 179.821 68.3034 179.162L72.5032 138.083H63.4271L60.0895 178.194C59.0362 179.09 58.3479 180.341 58.155 181.71C57.9621 183.08 58.278 184.472 59.043 185.624C59.8079 186.776 60.9686 187.607 62.3052 187.96C63.6418 188.313 65.0614 188.164 66.295 187.54Z" fill="#9F616A"/>
<path d="M74.5881 119.844L71.4075 115.345C71.4075 115.345 65.8139 111.551 62.9623 120.283C60.1107 129.014 60.5494 145.19 60.5494 145.19L71.4075 149.688L74.5881 119.844Z" fill="#CBCBCB"/>
<path d="M246.376 304H0.644964C0.473909 304 0.309859 303.932 0.188905 303.811C0.0679509 303.69 0 303.526 0 303.355C0 303.184 0.0679509 303.019 0.188905 302.898C0.309859 302.777 0.473909 302.709 0.644964 302.709H246.376C246.547 302.709 246.712 302.777 246.832 302.898C246.953 303.019 247.021 303.184 247.021 303.355C247.021 303.526 246.953 303.69 246.832 303.811C246.712 303.932 246.547 304 246.376 304Z" fill="#CACACA"/>
<path d="M633.355 304H387.624C387.453 304 387.289 303.932 387.168 303.811C387.047 303.69 386.979 303.526 386.979 303.355C386.979 303.184 387.047 303.019 387.168 302.898C387.289 302.777 387.453 302.709 387.624 302.709H633.355C633.526 302.709 633.69 302.777 633.811 302.898C633.932 303.019 634 303.184 634 303.355C634 303.526 633.932 303.69 633.811 303.811C633.69 303.932 633.526 304 633.355 304Z" fill="#CACACA"/>
</g>
<defs>
<clipPath id="clip0_28_164">
<rect width="634" height="304" fill="white"/>
</clipPath>
</defs>
</svg>
